<?xml version="1.0" encoding="utf-8"?>

<!-- Uploaded to: SVG Repo, www.svgrepo.com, Generator: SVG Repo Mixer Tools -->
<svg fill="#000000" height="800px" width="800px" version="1.1" id="Icons" xmlns="http://www.w3.org/2000/svg" xmlns:xlink="http://www.w3.org/1999/xlink" 
	 viewBox="0 0 32 32" xml:space="preserve">
<path d="M23,0H9C4,0,0,4,0,9v14c0,5,4,9,9,9h14c5,0,9-4,9-9V9C32,4,28,0,23,0z M22.8,21.5c-3.3,4.4-6.1,6.5-8.6,6.5
	c-1.8,0-3.2-1.5-4.3-4.4L8,16.7c-0.5-2-1-2.7-1.2-2.9c-0.2,0.1-0.6,0.4-1.2,0.8c-0.4,0.3-1.1,0.2-1.4-0.2L3.2,13
	c-0.3-0.4-0.3-1,0.1-1.3c1.1-1,2.2-2,3.3-3C8.3,7.1,9.4,6.1,10.5,6c1.1-0.1,3.7,0.1,4.4,4.8c0.5,3.5,0.8,4.7,0.9,5.2
	c0.3,1.5,0.6,2.3,0.8,2.6c0.2-0.2,0.6-0.7,1.2-1.6c1.1-1.7,1.3-2.6,1.4-3c0.1-0.5,0-0.7-0.1-0.8c0,0-0.2-0.1-0.4-0.1
	c-0.4,0-0.8,0.1-1.3,0.3c-0.4,0.2-0.8,0.1-1.1-0.2c-0.3-0.3-0.4-0.7-0.3-1c1.3-4.2,3.6-6.2,7.2-6.1c1.3,0,2.5,0.6,3.4,1.5
	c1,1.1,1.5,2.7,1.5,4.5C27.9,14.6,25.9,17.3,22.8,21.5z"/>
</svg>